<svg width="596" height="601" viewBox="0 0 596 601" fill="none" xmlns="http://www.w3.org/2000/svg">
<path d="M298.277 601C445.127 601 564.173 488.5 564.173 349.725C564.173 210.95 445.127 98.45 298.277 98.45C151.427 98.45 32.381 210.95 32.381 349.725C32.381 488.5 151.427 601 298.277 601Z" fill="#FFB700"/>
<path d="M297.178 538.7C408.226 538.7 498.248 453.628 498.248 348.686C498.248 243.744 408.226 158.672 297.178 158.672C186.13 158.672 96.108 243.744 96.108 348.686C96.108 453.628 186.13 538.7 297.178 538.7Z" fill="#FFCE00"/>
<path d="M449.254 349.467C449.254 428.847 380.224 493.192 296.153 493.192C212.082 493.192 144.81 428.841 144.81 349.467C144.81 270.092 212.964 205.741 297.029 205.741C381.094 205.741 449.248 270.092 449.248 349.467H449.254Z" fill="#FC5500"/>
<path d="M297.035 205.735C212.964 205.735 144.817 270.086 144.817 349.461C144.817 355.262 145.189 360.982 145.898 366.601C180.031 410.421 234.137 438.866 296.159 438.866C358.181 438.866 414.046 410.421 448.173 366.601C448.881 360.982 449.254 355.262 449.254 349.461C449.254 270.08 381.1 205.735 297.029 205.735H297.035Z" fill="#FF7300"/>
<path d="M256.708 260.477C259.062 266.695 265.381 271.148 272.805 271.148C280.229 271.148 286.548 266.695 288.902 260.477" stroke="#141313" stroke-width="6.93" stroke-linecap="round" stroke-linejoin="round"/>
<path d="M304.98 260.477C307.335 266.695 313.653 271.148 321.078 271.148C328.502 271.148 334.82 266.695 337.175 260.477" stroke="#141313" stroke-width="6.93" stroke-linecap="round" stroke-linejoin="round"/>
<path d="M223.01 272.509C242.493 289.339 268.487 299.611 297.035 299.611C325.582 299.611 351.577 289.333 371.06 272.509" stroke="#141313" stroke-width="6.93" stroke-linecap="round" stroke-linejoin="round"/>
<path d="M149.848 96.6L150.417 95.5495C150.598 95.2132 151.102 95.2028 151.299 95.5237L151.929 96.543C152.783 97.9246 154.037 99.0475 155.548 99.7719L156.66 100.31C157.015 100.481 157.026 100.957 156.687 101.143L155.608 101.738C154.146 102.545 152.958 103.73 152.192 105.159L151.622 106.209C151.441 106.545 150.938 106.556 150.74 106.235L150.111 105.215C149.257 103.834 148.003 102.711 146.491 101.987L145.38 101.448C145.024 101.278 145.013 100.802 145.353 100.615L146.431 100.02C147.893 99.2131 149.081 98.0281 149.848 96.6Z" fill="white"/>
<path d="M591.413 123.098C591.807 122.221 592.109 121.302 592.253 120.357C593.083 114.878 588.759 112.562 587.718 112.085C587.67 112.064 587.621 112.04 587.573 112.019C587.564 112.018 587.555 112.012 587.55 112.009C586.628 111.631 585.623 111.397 584.568 111.339C581.458 111.167 578.638 112.531 576.92 114.724C575.422 112.388 572.748 110.79 569.632 110.691C568.575 110.657 567.554 110.803 566.598 111.1C566.59 111.102 566.578 111.105 566.57 111.107C566.519 111.119 566.473 111.138 566.424 111.158C565.346 111.536 560.807 113.468 561.102 119C561.152 119.955 561.362 120.895 561.67 121.803C562.903 125.449 565.25 128.647 568.755 131.748C570.977 133.635 573.094 135.015 574.428 135.813C575.309 136.341 576.417 136.39 577.348 135.939C578.754 135.258 580.999 134.068 583.398 132.378C587.187 129.592 589.831 126.613 591.415 123.09" fill="#00A4FF"/>
<path d="M54.4459 108.959L43.418 105.42L39.6727 94.9987C39.3332 94.0621 37.9315 94.0621 37.5975 94.9987L33.8522 105.42L22.8244 108.959C21.8333 109.28 21.8333 110.605 22.8244 110.921L33.8522 114.46L37.5975 124.881C37.9315 125.818 39.3387 125.818 39.6727 124.881L43.418 114.46L54.4459 110.921C55.4369 110.605 55.4369 109.275 54.4459 108.959Z" fill="white"/>
<path d="M496.582 97.9043C498.716 92.7452 496.014 86.9324 490.557 84.9231C486.286 83.3518 481.594 84.5666 478.735 87.6353C478.829 83.5413 476.252 79.6456 471.981 78.0743C466.522 76.0581 460.371 78.6115 458.238 83.7705C456.64 87.6428 457.756 91.8817 460.728 94.6055C456.597 94.7121 452.731 97.1151 451.134 100.987C449 106.146 451.702 111.959 457.16 113.969C461.43 115.54 466.122 114.325 468.981 111.256C468.888 115.35 471.465 119.246 475.735 120.817C481.194 122.834 487.345 120.28 489.479 115.121C491.076 111.249 489.96 107.01 486.988 104.286C491.119 104.18 494.985 101.777 496.582 97.9043Z" fill="#FFA500"/>
<path d="M11.0059 152.923C4.92802 152.923 0 157.58 0 163.324C0 169.067 4.92802 173.724 11.0059 173.724C17.0838 173.724 22.0118 169.067 22.0118 163.324C22.0118 157.58 17.0838 152.923 11.0059 152.923ZM11.0059 167.153C8.76641 167.153 6.95399 165.44 6.95399 163.324C6.95399 161.207 8.76641 159.494 11.0059 159.494C13.2454 159.494 15.0579 161.212 15.0579 163.324C15.0579 165.435 13.2454 167.153 11.0059 167.153Z" fill="#00A4FF"/>
<path d="M132.431 161.225C121.94 163.615 111.383 157.509 108.854 147.595C107.698 143.067 108.421 138.524 110.54 134.7C110.967 133.929 110.327 133.029 109.412 133.049C107.118 133.101 104.78 133.458 102.464 134.146C90.7677 137.634 83.4578 148.935 85.5167 160.36C87.9478 173.887 101.911 182.425 115.786 179.268C124.897 177.193 131.61 170.611 133.91 162.627C134.151 161.789 133.329 161.018 132.437 161.219L132.431 161.225Z" fill="#FFE14F"/>
<path d="M538.143 168.752C539.64 174.319 536.078 179.977 530.187 181.391C524.296 182.805 518.308 179.439 516.812 173.872C515.315 168.305 518.878 162.646 524.768 161.232C530.659 159.818 536.647 163.185 538.143 168.752Z" fill="#FFE14F"/>
<path d="M439.046 156.948L440.332 155.389C440.739 154.89 441.573 155.016 441.795 155.614L442.493 157.476C443.443 160.004 445.134 162.221 447.38 163.869L449.03 165.084C449.558 165.469 449.425 166.257 448.792 166.467L446.822 167.126C444.146 168.024 441.8 169.622 440.057 171.744L438.771 173.303C438.364 173.802 437.53 173.677 437.308 173.079L436.61 171.217C435.66 168.688 433.969 166.471 431.723 164.824L430.073 163.609C429.545 163.224 429.678 162.436 430.311 162.226L432.281 161.567C434.957 160.669 437.303 159.07 439.046 156.948Z" fill="white"/>
</svg>
